<svg id="aebf2029-4770-47d8-9c09-fdd8cb37d926" data-name="android" xmlns="http://www.w3.org/2000/svg" viewBox="0 0 42.08 47.04"><defs><style>.\38 245ecaa-8009-4e82-8ce0-471f9ebd93d4{fill:#a4c639;}</style></defs><title>Artboard 1</title><path id="ecd1e970-f55f-4da2-bf22-a164486b9cb0" data-name="578" class="8245ecaa-8009-4e82-8ce0-471f9ebd93d4" d="M34.14,14H7.94c0,.11,0,.22,0,.33V33.1a3.59,3.59,0,0,0,3.31,3.62v7.44a2.89,2.89,0,0,0,5.77,0V36.74h8.06v7.42a2.89,2.89,0,0,0,5.77,0V36.72a3.6,3.6,0,0,0,3.32-3.62V14.34C34.16,14.23,34.15,14.12,34.14,14Z"/><path id="643e7a8a-b456-44b0-a440-8e0bbbd771dd" data-name="2345" class="8245ecaa-8009-4e82-8ce0-471f9ebd93d4" d="M2.89,15.68h0a2.88,2.88,0,0,1,2.88,2.88V30.94a2.88,2.88,0,0,1-2.88,2.89h0A2.89,2.89,0,0,1,0,30.94V18.56A2.88,2.88,0,0,1,2.89,15.68Z"/><path id="a29931aa-1be1-404b-8d35-a257fa0bcb84" data-name="22222" class="8245ecaa-8009-4e82-8ce0-471f9ebd93d4" d="M39.2,15.68h0a2.88,2.88,0,0,1,2.88,2.88V30.94a2.88,2.88,0,0,1-2.88,2.89h0a2.89,2.89,0,0,1-2.89-2.89V18.56A2.88,2.88,0,0,1,39.2,15.68Z"/><path id="414990a1-be51-43ec-a222-1e3cbc1c5ec0" data-name="1111111" class="8245ecaa-8009-4e82-8ce0-471f9ebd93d4" d="M8,12h26a10.48,10.48,0,0,0-3.19-7.28L33.32.46A.31.31,0,0,0,33.2,0a.31.31,0,0,0-.41.11L30.42,4.26A16.15,16.15,0,0,0,21,.86h0a16.41,16.41,0,0,0-9.37,3.4L9.3.15A.32.32,0,0,0,8.88,0a.32.32,0,0,0-.11.42l2.44,4.23A10.52,10.52,0,0,0,8,12ZM25.32,6.8a1.5,1.5,0,0,1,3,0h0a1.5,1.5,0,0,1-3,0Zm-11.14,0a1.5,1.5,0,0,1,3,0h0a1.5,1.5,0,0,1-3,0Z"/></svg>