<svg version="1.1" id="Layer_1" xmlns="http://www.w3.org/2000/svg" xmlns:xlink="http://www.w3.org/1999/xlink" x="0px" y="0px" width="74" height="73" viewBox="0 0 74 73" enable-background="new 0 0 74 73" xml:space="preserve" fill="none">
<!-- <path d="M32.5811 0L0 32.581V72L72 0H32.5811Z" fill="#D22856"/> -->
<polygon fill="#D22856" points="31,0 0,30.581 0,73 74,0 "/>

<path d="M23.2814 34.1952L22.3485 35.1282L17.3407 33.9197L18.5153 38.9613L17.6453 39.8314L16.3015 33.7892L10.7379 32.6049L11.6466 31.6962L16.2 32.7403L15.1704 28.1724L16.0453 27.2975L17.2006 32.8321L23.2814 34.1952Z" fill="white"/>
<path d="M17.2344 26.1084L18.003 25.3398L21.9328 29.2697C22.6579 29.9947 23.2911 30.6731 23.8324 31.3047L23.8711 31.266L21.9376 21.4052L22.8367 20.5061L29.9036 27.573L29.1302 28.3464L25.2391 24.4553C24.5913 23.8075 23.9388 23.1002 23.2814 22.3333L23.2379 22.3768L25.2004 32.2763L24.3013 33.1753L17.2344 26.1084Z" fill="white"/>
<path d="M34.0171 23.4595L33.1954 24.2813L26.8584 17.9442L24.6203 20.1822L23.8905 19.4523L29.1882 14.1546L29.9181 14.8845L27.6801 17.1225L34.0171 23.4595Z" fill="white"/>
</svg>
