<svg width="61" height="61" viewBox="0 0 61 61" fill="none" xmlns="http://www.w3.org/2000/svg">
<path d="M18.975 0L0 19.062V61L61.09 0H18.975Z" fill="#D22856"/>
<path d="M20.2814 27.1952L19.3485 28.1282L14.3407 26.9197L15.5153 31.9613L14.6453 32.8314L13.3015 26.7892L7.7379 25.6049L8.6466 24.6962L13.2 25.7403L12.1704 21.1724L13.0453 20.2975L14.2006 25.8321L20.2814 27.1952Z" fill="white"/>
<path d="M14.2344 19.1084L15.003 18.3398L18.9328 22.2697C19.6579 22.9947 20.2911 23.6731 20.8324 24.3047L20.8711 24.266L18.9376 14.4052L19.8367 13.5061L26.9036 20.573L26.1302 21.3464L22.2391 17.4553C21.5913 16.8075 20.9388 16.1002 20.2814 15.3333L20.2379 15.3768L22.2004 25.2763L21.3013 26.1753L14.2344 19.1084Z" fill="white"/>
<path d="M31.0171 16.4595L30.1954 17.2813L23.8584 10.9442L21.6203 13.1822L20.8905 12.4523L26.1882 7.1546L26.9181 7.8845L24.6801 10.1225L31.0171 16.4595Z" fill="white"/>
</svg>
