<svg xmlns="http://www.w3.org/2000/svg" viewBox="0 0 222.79 258"><path d="M197.8 76.3l4-4c5.77-5.76 6.82-14.15 2.34-18.64S191.26 50.22 185.5 56l-4 4a110.84 110.84 0 0 0-55.89-23.89v-7.17h5.72a14.7 14.7 0 0 0 14.84-14.47A14.7 14.7 0 0 0 131.33 0H91.46a14.7 14.7 0 0 0-14.83 14.47 14.7 14.7 0 0 0 14.83 14.47h5.73v7.17A111.41 111.41 0 1 0 197.8 76.3zM111.4 229a82.37 82.37 0 1 1 82.37-82.36A82.37 82.37 0 0 1 111.39 229z" fill="#dedede"/><path d="M107.45 176H62v-9.55L78.35 150q7.23-7.4 9.46-10.28a22.78 22.78 0 0 0 3.2-5.31 13.57 13.57 0 0 0 1-5.07q0-3.92-2.16-5.82a8.37 8.37 0 0 0-5.75-1.91 16.6 16.6 0 0 0-7.33 1.73 37.94 37.94 0 0 0-7.42 4.93l-7.47-8.84a48.74 48.74 0 0 1 8-5.77A28.8 28.8 0 0 1 76.7 111a35.13 35.13 0 0 1 8.35-.91 24.78 24.78 0 0 1 10.76 2.22 17.12 17.12 0 0 1 7.24 6.22 16.48 16.48 0 0 1 2.58 9.15 22.44 22.44 0 0 1-1.58 8.42 32.34 32.34 0 0 1-4.89 8.07A118.51 118.51 0 0 1 87.5 156l-8.36 7.87v.62h28.3zm53.4-13.46H153V176h-13.38v-13.46H111.9V153l28.5-42H153v40.83h7.82zm-21.24-10.67v-11l.22-8 .36-6.1h-.36a48.9 48.9 0 0 1-4 7.11l-11.9 18zm-28.72 88.88a94 94 0 1 1 94-94 94.11 94.11 0 0 1-94 94zm0-176.06a82.06 82.06 0 1 0 82.1 82.06 82.16 82.16 0 0 0-82.11-82.06z" fill="#d22856"/></svg>